<svg width="62" height="63" fill="none" xmlns="http://www.w3.org/2000/svg"><path opacity=".5" d="M40.227 62l-2.598 2.403 1.05 1.136h1.548V62zm-3.143-3.398l2.598-2.403-1.925-2.081-2.452 1.425 1.78 3.06zM29.44 61.83l.875 3.43.034-.01.034-.009-.943-3.41zM9.734 60.046l-1.837 3.026.02.012.02.011 1.797-3.049zm-7.135-7.304L-.517 54.42l3.116-1.678zm.17-18.093l-2.945-1.963 2.945 1.963zm5.945-6.625l2.253 2.73 2.715-2.24-2.225-2.727-2.743 2.237zm-3.822-5.776l-3.264 1.369.027.064.03.064 3.207-1.497zm1.19-14.185L3.124 6.117 6.08 8.063zm6.285-5.266l1.444 3.231.015-.007.015-.007-1.474-3.217zm17.497-.34L28.6 5.762l.042.016.042.015 1.181-3.336zm6.71 4.672l-2.742 2.237.015.018.015.018 2.713-2.273zm.51 16.563l3.06 1.779.009-.015.008-.015-3.077-1.749zm-5.69 6.625L29.127 27.6l-2.874 2.394 2.55 2.737 2.59-2.412zm6.964 7.475l-2.589 2.413 3.83 4.11 2.054-5.229-3.295-1.294zm1.444-5.096l3.479.652.002-.01.001-.01-3.482-.632zm.51-6.03v-3.54h-3.54v3.54h3.54zm12.996 0l3.539.046.047-3.586h-3.586v3.54zm-1.53 11.72l-3.412-.935-.007.026-.007.025 3.427.885zm-3.906 9.43l-3.019-1.849-1.42 2.32 1.875 1.968 2.564-2.44zM61.377 62v3.54h8.256l-5.693-5.98L61.377 62zM18.992 17.746l-2.9 2.03.119.168.136.154 2.645-2.352zm2.209 2.209l-2.43 2.573 2.096 1.98 2.363-1.654-2.03-2.9zm2.463-2.039l2.63 2.368.056-.062.053-.065-2.74-2.24zm-.085-4.502l-2.503 2.503.066.066.07.062 2.367-2.63zm-4.417.17l-2.619-2.38-.006.006-.006.007 2.631 2.367zm-2.803 32.872l-3.262 1.373.045.107.052.103 3.165-1.583zm2.378 2.718l-2.1 2.85.084.06.087.057 1.93-2.967zm9.514 0l1.407 3.248 4.604-1.996-3.425-3.668-2.586 2.416zm-9.599-10.278l2.587-2.415-2.189-2.344-2.547 1.948 2.15 2.811zm-2.208 2.294l2.91 2.014.034-.05.033-.05-2.977-1.914zm26.381 18.407l-3.143-3.398-5.196 4.807 3.143 3.397 5.196-4.806zm-7.52-4.054a28.73 28.73 0 01-6.809 2.876l1.887 6.822a35.811 35.811 0 008.48-3.579l-3.558-6.12zm-6.74 2.858a28.63 28.63 0 01-7.11.91v7.077c2.967 0 5.922-.379 8.86-1.129l-1.75-6.858zm-7.11.91c-4.174 0-7.423-.84-9.924-2.314l-3.594 6.099c3.84 2.263 8.406 3.292 13.518 3.292V59.31zm-9.885-2.29c-2.692-1.635-4.6-3.627-5.855-5.957l-6.232 3.355c1.916 3.56 4.764 6.437 8.414 8.653l3.673-6.05zm-5.855-5.957c-1.329-2.468-1.955-4.925-1.955-7.411h-7.08c0 3.743.96 7.345 2.802 10.767l6.232-3.356zM3.76 43.653c0-2.848.69-5.146 1.953-7.04l-5.89-3.927c-2.134 3.202-3.142 6.907-3.142 10.967H3.76zm1.953-7.04c1.515-2.273 3.267-4.22 5.254-5.859l-4.505-5.46c-2.543 2.098-4.756 4.568-6.638 7.392l5.89 3.927zm5.744-10.826c-1.65-2.023-2.733-3.696-3.358-5.035l-6.414 2.993c.96 2.058 2.426 4.235 4.287 6.516l5.485-4.474zM8.156 20.88c-.537-1.28-.829-2.735-.829-4.408H.25c0 2.518.444 4.914 1.38 7.145l6.527-2.738zm-.829-4.408c0-2.72.626-4.817 1.71-6.462L3.125 6.117C1.151 9.115.25 12.624.25 16.472h7.078zm1.71-6.462c1.14-1.73 2.697-3.054 4.774-3.982L10.923-.434c-3.246 1.45-5.879 3.637-7.798 6.55l5.912 3.894zm4.804-3.996c2.204-1.01 4.722-1.547 7.614-1.547V-2.61c-3.79 0-7.33.71-10.563 2.19l2.95 6.435zm7.614-1.547c2.527 0 4.9.436 7.144 1.295l2.531-6.61c-3.079-1.179-6.312-1.763-9.675-1.763v7.078zm7.228 1.326c2.131.755 3.82 1.943 5.15 3.573l5.484-4.474c-2.181-2.674-4.966-4.6-8.271-5.77l-2.363 6.671zm5.179 3.609c1.093 1.305 1.807 3.203 1.807 6.051h7.078c0-4.06-1.042-7.711-3.46-10.597l-5.425 4.546zm1.807 6.051c0 2.418-.563 4.558-1.662 6.49l6.154 3.498c1.733-3.05 2.586-6.404 2.586-9.988h-7.078zm-1.644 6.46c-1.189 2.044-2.805 3.942-4.897 5.686l4.531 5.437c2.664-2.22 4.842-4.739 6.485-7.565l-6.12-3.558zm-5.22 10.817l6.964 7.475 5.179-4.826-6.965-7.474-5.179 4.825zm12.848 6.356a31.68 31.68 0 001.628-5.738l-6.957-1.304a24.497 24.497 0 01-1.26 4.454l6.589 2.588zm1.631-5.757c.383-2.103.567-4.327.567-6.664h-7.078c0 1.967-.156 3.763-.453 5.398l6.964 1.266zm-2.972-3.125h12.996v-7.078H40.312v7.078zm9.457-3.585c-.053 4.055-.533 7.658-1.403 10.832l6.826 1.872c1.055-3.848 1.595-8.06 1.655-12.611l-7.078-.093zm-1.417 10.883c-.828 3.21-2.003 6.022-3.499 8.465l6.037 3.696c1.902-3.106 3.332-6.58 4.316-10.392l-6.854-1.769zm-3.044 12.753L58.814 64.44l5.126-4.88-13.505-14.185-5.127 4.88zm16.07 8.206h-21.15v7.078h21.15v-7.078zm-46.52-42.668c0 1.412.394 2.782 1.235 3.983l5.799-4.06a.353.353 0 01.047.112s-.002-.01-.002-.035h-7.079zm1.489 4.305c.56.63 1.39 1.454 2.423 2.43l4.86-5.146c-1.005-.95-1.647-1.598-1.993-1.987l-5.29 4.703zm6.883 2.756c1.206-.843 2.286-1.705 3.064-2.57l-5.26-4.735c-.241.267-.803.765-1.863 1.506l4.06 5.8zm3.173-2.697c1.092-1.334 1.564-2.92 1.564-4.534H20.89a.8.8 0 01-.007.12c-.003.019-.005.022-.002.014a.27.27 0 01.045-.082l5.478 4.482zm1.564-4.534c0-1.683-.521-3.49-2.02-4.84l-4.736 5.262a1.19 1.19 0 01-.298-.426c-.045-.116-.024-.136-.024.004h7.078zm-1.886-4.711c-1.333-1.334-3.035-1.801-4.626-1.801v7.078c.126 0 .112.018.012-.018a1.102 1.102 0 01-.39-.254l5.004-5.005zM21.455 9.11c-1.801 0-3.575.623-4.912 2.093l5.238 4.761a.84.84 0 01-.285.196c-.107.043-.14.028-.04.028V9.111zm-4.924 2.106c-1.201 1.335-1.673 2.97-1.673 4.576h7.079c0-.122.017-.134-.004-.074a.74.74 0 01-.14.233l-5.262-4.735zm-4.39 32.436c0 1.432.4 2.853.956 4.176l6.524-2.746c-.35-.829-.402-1.277-.402-1.43H12.14zm1.053 4.386c.8 1.6 1.995 2.917 3.444 3.984l4.199-5.698c-.703-.518-1.093-1.013-1.313-1.452l-6.33 3.166zm3.614 4.102c1.872 1.217 4.078 1.677 6.346 1.677v-7.079c-1.355 0-2.095-.277-2.488-.532l-3.858 5.934zm6.346 1.677c2.225 0 4.401-.485 6.504-1.396l-2.815-6.495c-1.294.56-2.516.812-3.689.812v7.079zm7.683-7.06L21.24 36.481l-5.173 4.831 9.598 10.278 5.173-4.832zM16.503 36.085c-1.2.917-2.252 1.97-3.036 3.19l5.954 3.829c.235-.366.656-.841 1.381-1.396l-4.3-5.623zm-2.969 3.09a7.767 7.767 0 00-1.394 4.478h7.079a.7.7 0 01.135-.449l-5.82-4.029z" fill="#CAD1D9"/></svg>