<svg width="16" height="16" fill="none" xmlns="http://www.w3.org/2000/svg"><path d="M6.584.11A17.463 17.463 0 005.2 3.887c.762.17 1.541.271 2.33.3V0c-.32.018-.636.055-.947.11zm4.41 4.696c-.826.185-1.67.292-2.524.32V7.53h2.81a17.616 17.616 0 00-.286-2.724zM9.415.11A8.074 8.074 0 008.47 0v4.187a12.781 12.781 0 002.33-.299A17.482 17.482 0 009.414.11zM8.47 11.813V16c.319-.018.635-.055.946-.11a17.414 17.414 0 001.385-3.777 12.776 12.776 0 00-2.332-.3zm3.749-3.343c-.025.996-.13 1.986-.312 2.96.934.277 1.832.652 2.69 1.123A7.94 7.94 0 0016 8.47h-3.781zM5.2 12.113a17.414 17.414 0 001.384 3.777c.311.055.627.092.947.11v-4.187c-.789.028-1.568.129-2.332.3zm-.194-7.307a17.61 17.61 0 00-.285 2.725h2.81V5.127a13.745 13.745 0 01-2.525-.321zm-3.603-1.36A7.94 7.94 0 000 7.53h3.782c.025-.998.13-1.988.313-2.96a13.639 13.639 0 01-2.692-1.124zm2.887 8.906a12.61 12.61 0 00-2.299.95 8 8 0 003.406 2.281 18.346 18.346 0 01-1.107-3.231zM1.992 2.698a12.7 12.7 0 002.3.95c.27-1.108.64-2.19 1.108-3.232a7.998 7.998 0 00-3.407 2.282zm1.79 5.772H0a7.94 7.94 0 001.403 4.083 13.616 13.616 0 012.69-1.124 18.601 18.601 0 01-.311-2.96zM10.601.416a18.434 18.434 0 011.106 3.234c.8-.242 1.564-.558 2.302-.952A8 8 0 0010.6.416zm1.109 11.936a18.353 18.353 0 01-1.107 3.231 8 8 0 003.406-2.28 12.636 12.636 0 00-2.3-.951zM4.721 8.47c.024.916.12 1.827.284 2.723a13.722 13.722 0 012.525-.32V8.47H4.721zm9.876-5.024c-.84.462-1.738.842-2.692 1.125.183.973.288 1.962.313 2.96H16a7.94 7.94 0 00-1.403-4.085zM8.47 8.47v2.403a13.78 13.78 0 012.525.32c.165-.896.26-1.807.284-2.724h-2.81z" fill="#fff"/></svg>