<svg width="14" height="14" fill="none" xmlns="http://www.w3.org/2000/svg"><path d="M12.008 0H1.992C.862 0 0 .862 0 1.992v10.016C0 13.138.862 14 1.992 14h10.016c1.13 0 1.992-.861 1.992-1.992V1.992C14 .862 13.139 0 12.008 0zM7 11.2c2.315 0 4.2-1.83 4.2-4.038a3.85 3.85 0 00-.161-1.131h1.184v5.708a.54.54 0 01-.538.538h-9.37a.54.54 0 01-.538-.538V5.977h1.238a4.1 4.1 0 00-.161 1.13C2.8 9.37 4.684 11.2 7 11.2zm0-1.615c-1.508 0-2.692-1.185-2.692-2.639 0-1.454 1.184-2.638 2.692-2.638 1.508 0 2.692 1.184 2.692 2.638 0 1.508-1.184 2.639-2.692 2.639zm5.17-5.762c0 .323-.27.592-.593.592h-1.508a.598.598 0 01-.592-.592V2.37c0-.323.27-.592.592-.592h1.508c.323 0 .592.27.592.592v1.454z" fill="#fff"/></svg>