<svg width="20" height="20" fill="none" xmlns="http://www.w3.org/2000/svg"><g opacity=".75"><mask id="mask0" maskUnits="userSpaceOnUse" x="0" y="0" width="20" height="20"><path fill="#C4C4C4" d="M0 0h20v20H0z"/></mask><g mask="url(#mask0)" fill="#0774DB"><path d="M11.667 9.167a2.5 2.5 0 11-5 0 2.5 2.5 0 015 0z"/><path fill-rule="evenodd" clip-rule="evenodd" d="M3.333 9.167c0 4.375 5.834 9.166 5.834 9.166S15 13.542 15 9.167a5.829 5.829 0 00-5.833-5.834 5.83 5.83 0 00-5.834 5.834zm1.667 0A4.162 4.162 0 019.167 5a4.162 4.162 0 014.166 4.167c0 1.55-1.096 3.441-2.529 5.155a23.516 23.516 0 01-1.637 1.76 23.533 23.533 0 01-1.638-1.76c-1.433-1.714-2.53-3.605-2.53-5.155z"/></g></g></svg>