<svg width="64" height="16" fill="none" xmlns="http://www.w3.org/2000/svg"><path d="M60.377 8.252V6.075h1.451v2.177H64v1.452h-2.172v2.171h-1.451V9.704H58.2V8.252h2.177z" fill="#fff"/><path d="M61.828 7.826v.426H64l-.612-.517-1.56.091zm-1.451-1.751h1.451l-.619-.467-.934.986.102-.52zm0 5.8V10.85l-.62.518.62.507zM58.2 9.704V8.252h.518V8.15H58.2l-.623 1.038.623.516z" fill="#fff"/><path d="M59.777 7.75V5.571h1.451v2.177H63.4V9.2h-2.172v2.171h-1.451v-2.17h-2.178V7.749h2.178z" fill="#0774DB"/><path d="M0 4.215h1.643v2.938L3.96 4.215h1.956L2.932 8.024l3.275 4.732H4.279L1.643 8.964v3.792H0V4.215zM11.398 4c1.207 0 2.245.437 3.112 1.312.87.875 1.306 1.941 1.306 3.2 0 1.246-.43 2.3-1.289 3.164-.855.863-1.895 1.294-3.118 1.294-1.281 0-2.346-.443-3.193-1.33-.848-.886-1.272-1.938-1.272-3.158a4.432 4.432 0 012.218-3.878A4.375 4.375 0 0111.398 4zm-.018 1.59c-.79 0-1.453.276-1.991.825-.538.55-.807 1.249-.807 2.096 0 .945.338 1.692 1.016 2.242a2.78 2.78 0 001.811.644c.77 0 1.426-.279 1.968-.836.542-.557.813-1.244.813-2.061 0-.813-.273-1.5-.818-2.061a2.665 2.665 0 00-1.992-.848zm5.963-1.375h1.649v3.222h2.857V4.215h1.643v8.54h-1.643V9.012h-2.857v3.745h-1.649V4.215zm15.95 1.504l-1.138 1.085c-.775-.816-1.646-1.225-2.613-1.225-.817 0-1.506.279-2.067.836-.558.558-.836 1.245-.836 2.062 0 .569.124 1.074.371 1.515.248.441.598.788 1.051 1.04.453.25.956.377 1.51.377.472 0 .904-.087 1.295-.262.39-.178.82-.499 1.289-.963l1.103 1.15c-.631.615-1.227 1.042-1.789 1.282-.56.236-1.201.354-1.921.354-1.328 0-2.416-.42-3.263-1.26-.844-.843-1.266-1.923-1.266-3.24 0-.85.191-1.608.575-2.27.387-.661.938-1.194 1.654-1.596A4.682 4.682 0 0129.571 4c.704 0 1.382.149 2.032.447a4.86 4.86 0 011.69 1.272zm4.029-1.504h1.649l3.286 8.54h-1.69l-.667-1.759h-3.484l-.696 1.76h-1.69l3.292-8.541zm.836 2.264L37.02 9.411h2.27L38.158 6.48zm10.892 6.277l-2.363-6.277-2.403 6.277h-1.725l3.292-8.541h1.65l3.286 8.54H49.05zm1.888-8.541h4.72v1.602h-1.556v6.939h-1.65V5.817h-1.514V4.215z" fill="#0B1926"/></svg>