<svg width="20" height="20" fill="none" xmlns="http://www.w3.org/2000/svg"><g opacity=".75"><mask id="mask0" maskUnits="userSpaceOnUse" x="0" y="0" width="20" height="20"><path fill="#C4C4C4" d="M0 0h20v20H0z"/></mask><g mask="url(#mask0)"><path d="M13.927 10.244a.832.832 0 00-1.178 0l-1.329 1.329c-.616-.184-1.765-.6-2.493-1.329-.728-.728-1.145-1.877-1.328-2.493l1.328-1.328a.832.832 0 000-1.179L5.594 1.911a.832.832 0 00-1.179 0l-2.26 2.26a1.665 1.665 0 00-.488 1.196c.02 1.186.333 5.308 3.582 8.556 3.248 3.249 7.37 3.562 8.557 3.582h.023c.44 0 .856-.173 1.171-.488l2.26-2.26a.832.832 0 000-1.178l-3.333-3.335zm-.106 5.594c-1.04-.018-4.598-.297-7.394-3.094C3.622 9.94 3.35 6.37 3.334 5.35l1.67-1.67L7.16 5.833 6.082 6.91a.833.833 0 00-.227.76c.02.096.51 2.368 1.893 3.752 1.383 1.383 3.656 1.872 3.751 1.892a.826.826 0 00.76-.226l1.079-1.077 2.155 2.155-1.672 1.67z" fill="#0774DB"/></g></g></svg>