<svg width="24" height="24" fill="none" xmlns="http://www.w3.org/2000/svg"><path d="M20.906 8.438a2.815 2.815 0 00-2.812-2.813 2.816 2.816 0 00-2.813 2.813 2.816 2.816 0 002.813 2.812 2.815 2.815 0 002.812-2.813zm-2.812 1.406a1.408 1.408 0 01-1.407-1.406 1.408 1.408 0 012.813 0c0 .775-.63 1.406-1.406 1.406zm0 1.406a4.927 4.927 0 00-4.922 4.922v1.453c0 .388.315.703.703.703h8.438a.703.703 0 00.703-.703v-1.453a4.927 4.927 0 00-4.922-4.922zm3.515 5.672h-7.03v-.75a3.52 3.52 0 013.515-3.516 3.52 3.52 0 013.515 3.516v.75z" fill="#fff"/><path fill-rule="evenodd" clip-rule="evenodd" d="M.984 1.922h19.453a.703.703 0 010 1.406H2.392v17.344h18.047a.703.703 0 010 1.406H.983V1.922z" fill="#fff"/><path fill-rule="evenodd" clip-rule="evenodd" d="M3.328 5.625c0-.388.191-.703.428-.703h7.864c.236 0 .427.315.427.703 0 .388-.192.703-.428.703H3.756c-.237 0-.428-.315-.428-.703zm0 12.797c0-.389.315-.703.703-.703h7.313a.703.703 0 110 1.406H4.03a.703.703 0 01-.703-.703zm0-4.266c0-.388.315-.703.703-.703h7.313a.703.703 0 010 1.406H4.03a.703.703 0 01-.703-.703zm0-4.266c0-.388.315-.703.703-.703h7.313a.703.703 0 010 1.407H4.03a.703.703 0 01-.703-.703z" fill="#fff"/></svg>