<svg width="24" height="24" fill="none" xmlns="http://www.w3.org/2000/svg"><path d="M20.438 0H3.563a.703.703 0 00-.704.703v22.594c0 .388.315.703.704.703h16.875a.703.703 0 00.703-.703V.703A.703.703 0 0020.438 0zm-9.141 7.078v2.813H8.484V7.078h2.813zm4.219 0v2.813h-2.813V7.078h2.813zm4.218 0v2.813h-2.812V7.078h2.812zm-11.25 4.219h2.813v2.812H8.484v-2.812zm-1.406 2.812H4.266v-2.812h2.812v2.812zm0-4.218H4.266V7.078h2.812v2.813zm-2.812 5.625h2.812v2.812H4.266v-2.812zm4.218 0h2.813v2.812H8.484v-2.812zm2.813 4.218v2.86H8.484v-2.86h2.813zm1.406 0h2.813v2.86h-2.813v-2.86zm2.813-1.406h-2.813v-2.812h2.813v2.812zm-2.813-4.219v-2.812h2.813v2.812h-2.813zm4.219-2.812h2.812v2.812h-2.812v-2.812zm2.812-9.89v4.265H4.266V1.406h15.468zM4.266 19.733h2.812v2.86H4.266v-2.86zm12.656 2.86v-7.078h2.812v7.078h-2.812z" fill="#fff"/><path d="M18.328 3.563a.703.703 0 11-1.406 0 .703.703 0 011.406 0zm-2.812 0a.703.703 0 11-1.406 0 .703.703 0 011.406 0zm-2.813 0a.703.703 0 11-1.406 0 .703.703 0 011.406 0z" fill="#fff"/></svg>