<svg width="24" height="24" fill="none" xmlns="http://www.w3.org/2000/svg"><path d="M8.438 13.64a2.816 2.816 0 00-2.813-2.812 2.816 2.816 0 00-2.813 2.813 2.816 2.816 0 002.813 2.812 2.816 2.816 0 002.813-2.812zm-2.813 1.407a1.407 1.407 0 010-2.813 1.408 1.408 0 010 2.813z" fill="#fff"/><path d="M5.625 16.453a4.927 4.927 0 00-4.922 4.922v1.453c0 .389.315.703.703.703h8.438a.703.703 0 00.703-.703v-1.453a4.927 4.927 0 00-4.922-4.922zm3.516 5.672H2.109v-.75a3.52 3.52 0 013.516-3.516 3.52 3.52 0 013.516 3.516v.75zM21.89 13.64a2.816 2.816 0 00-2.812-2.812 2.816 2.816 0 00-2.812 2.813 2.816 2.816 0 002.812 2.812 2.816 2.816 0 002.813-2.812zm-2.812 1.407a1.407 1.407 0 010-2.813 1.408 1.408 0 010 2.813z" fill="#fff"/><path d="M19.078 16.453a4.927 4.927 0 00-4.922 4.922v1.453c0 .389.315.703.703.703h8.438a.703.703 0 00.703-.703v-1.453a4.927 4.927 0 00-4.922-4.922zm3.516 5.672h-7.032v-.75a3.52 3.52 0 013.516-3.516 3.52 3.52 0 013.516 3.516v.75z" fill="#fff"/><path fill-rule="evenodd" clip-rule="evenodd" d="M4.913 2.344v6.228H7.79c.445 0 .88.126 1.256.365l3.235 2.054 3.235-2.054a2.344 2.344 0 011.257-.365h2.877V2.344H4.913zM4.443.938a.937.937 0 00-.937.937V9.04c0 .518.42.938.938.938H7.79c.178 0 .352.05.503.146l3.486 2.213a.937.937 0 001.005 0l3.486-2.213a.937.937 0 01.503-.146h3.346c.518 0 .937-.42.937-.938V1.875a.937.937 0 00-.937-.938H4.444z" fill="#fff"/><path fill-rule="evenodd" clip-rule="evenodd" d="M6.89 4.078c0-.388.315-.703.704-.703h9.375a.703.703 0 010 1.406H7.594a.703.703 0 01-.703-.703zm0 3.094c0-.388.315-.703.704-.703h9.375a.703.703 0 010 1.406H7.594a.703.703 0 01-.703-.703z" fill="#fff"/></svg>