<svg width="24" height="24" fill="none" xmlns="http://www.w3.org/2000/svg"><path d="M12 5.672a.704.704 0 010 1.406.707.707 0 01-.61-.352.703.703 0 10-1.217.704c.255.44.658.767 1.124.932v.77a.703.703 0 101.406 0v-.768a2.113 2.113 0 001.406-1.989c0-1.163-.946-2.11-2.109-2.11a.704.704 0 010-1.406c.25 0 .484.135.61.352a.703.703 0 101.217-.704 2.116 2.116 0 00-1.124-.932V.703a.703.703 0 10-1.406 0v.871A2.113 2.113 0 009.89 3.562c0 1.164.946 2.11 2.109 2.11zm2.813 8.438A2.816 2.816 0 0012 11.296a2.816 2.816 0 00-2.813 2.812A2.816 2.816 0 0012 16.922a2.816 2.816 0 002.813-2.813zM12 15.515a1.408 1.408 0 010-2.813 1.407 1.407 0 010 2.813zm11.25.001a2.816 2.816 0 00-2.813-2.813 2.816 2.816 0 00-2.812 2.813 2.816 2.816 0 002.813 2.812 2.816 2.816 0 002.812-2.812zm-2.813 1.406c-.775 0-1.406-.63-1.406-1.406a1.408 1.408 0 012.813 0c0 .775-.631 1.406-1.406 1.406zm-14.062 0a2.816 2.816 0 00-2.813-2.813A2.816 2.816 0 00.75 16.922a2.816 2.816 0 002.813 2.812 2.816 2.816 0 002.812-2.812zm-2.813 1.406c-.775 0-1.406-.63-1.406-1.406a1.407 1.407 0 012.813 0c0 .775-.631 1.406-1.407 1.406zm.001 1.406c-.94 0-1.83.374-2.51 1.054A3.533 3.533 0 000 23.297c0 .388.315.703.703.703h5.672a.703.703 0 00.703-.703c0-.94-.364-1.828-1.024-2.504a3.463 3.463 0 00-2.492-1.059zm-2.034 2.86c.299-.836 1.11-1.453 2.034-1.453.903 0 1.696.617 1.989 1.453H1.529z" fill="#fff"/><path d="M22.947 19.381a3.533 3.533 0 00-2.51-1.053 3.46 3.46 0 00-2.491 1.059 3.563 3.563 0 00-1.024 2.504c0-2.74-2.208-4.97-4.922-4.97-2.714 0-4.922 2.23-4.922 4.97v1.406c0 .388.315.703.703.703h8.438a.703.703 0 00.703-.703c0 .388.315.703.703.703h5.672a.703.703 0 00.703-.703V21.89c0-.94-.374-1.83-1.053-2.51zm-7.431 3.213H8.484v-.703c0-1.965 1.578-3.563 3.516-3.563s3.516 1.598 3.516 3.563v.703zm7.078 0h-4.266v-.703c0-1.17.966-2.157 2.11-2.157 1.168 0 2.156.988 2.156 2.157v.703z" fill="#fff"/></svg>