<svg width="16" height="16" fill="none" xmlns="http://www.w3.org/2000/svg"><g clip-path="url(#clip0)" fill="#fff"><path d="M15.437 9.262c.477-4.018-.23-6.555-1.505-7.702h.001C11.876-.4 4.928-.69 2.466 1.646 1.361 2.791.972 4.47.93 6.546c-.043 2.078-.093 5.97 3.534 7.027h.003l-.003 1.612s-.025.654.393.785c.477.155.693-.149 2.178-1.922 2.482.215 4.39-.278 4.606-.35.501-.168 3.338-.543 3.796-4.436zm-8.159 3.651s-1.57 1.96-2.06 2.468c-.16.166-.335.15-.332-.178l.012-2.677c-3.076-.881-2.894-4.196-2.86-5.93.032-1.735.35-3.155 1.286-4.112 2.16-2.025 8.25-1.572 9.803-.113 1.897 1.682 1.221 6.434 1.225 6.596-.39 3.249-2.688 3.455-3.11 3.596-.182.06-1.858.49-3.964.35z"/><path d="M8.148 2.865c-.257 0-.257.4 0 .403 1.991.015 3.631 1.403 3.65 3.95 0 .268.393.264.39-.004h-.002c-.02-2.744-1.812-4.334-4.038-4.35z"/><path d="M10.768 6.795c-.007.266.386.278.39.01.032-1.513-.9-2.76-2.653-2.89-.257-.02-.284.384-.028.403 1.52.115 2.321 1.153 2.29 2.477zm-.421 1.721c-.33-.19-.665-.072-.803.115l-.29.376c-.148.19-.423.165-.423.165-2.01-.531-2.547-2.634-2.547-2.634s-.024-.285.16-.437l.362-.3c.182-.144.296-.491.112-.832-.494-.891-.825-1.198-.994-1.434-.177-.222-.444-.272-.72-.122h-.007C4.62 3.75 3.99 4.38 4.191 5.03c.345.686.978 2.87 2.997 4.521.948.78 2.45 1.58 3.087 1.765l.006.01c.628.209 1.239-.447 1.565-1.041v-.005c.144-.287.096-.559-.115-.737-.375-.365-.94-.769-1.384-1.028z"/><path d="M8.78 5.403c.64.037.95.372.984 1.059.012.269.402.25.39-.019-.043-.897-.51-1.397-1.353-1.444-.257-.015-.28.388-.022.404z"/></g><defs><clipPath id="clip0"><path fill="#fff" d="M0 0h16v16H0z"/></clipPath></defs></svg>