<svg width="24" height="24" fill="none" xmlns="http://www.w3.org/2000/svg"><path d="M18.416 18.333a6.435 6.435 0 00-1.462 3.423H15.51v-1.56c-.005 0-1.357.154-1.406.154H8.478v1.406h-1.47a3.57 3.57 0 00-1.574-2.33c-1.924-1.245-2.293-3.09-2.4-3.295H1.4V13.32h1.634l.166-.468c.231-.651.601-1.167.72-1.37l-.795-2.38h.203c1.277 0 2.064.703 2.25.796.227-.09 1.24-.797 2.9-.797h3.221a6.339 6.339 0 007.77 3.957c.557 1.718.227 3.75-1.053 5.276z" fill="#45D0F7"/><path d="M17.672 6.375a.704.704 0 11.648-.977l1.295-.547a2.106 2.106 0 00-1.943-1.288c-1.163 0-2.11.946-2.11 2.109s.947 2.11 2.11 2.11a.704.704 0 11-.648.976l-1.296.548a2.106 2.106 0 001.944 1.288c1.163 0 2.11-.947 2.11-2.11a2.112 2.112 0 00-2.11-2.109z" fill="#000"/><path d="M24 7.078A6.335 6.335 0 0017.672.75a6.335 6.335 0 00-6.289 7.031H8.484c-.987 0-1.935.2-2.824.596a4.878 4.878 0 00-2.326-.596H1.181l1.204 3.612c-.12.21-.224.41-.314.607H0v5.625h2.067a7.052 7.052 0 002.61 3.07 2.17 2.17 0 01.995 1.828v.727H9.89v-1.406h4.218v1.406h4.22v-.703c0-1.177.415-2.322 1.171-3.223 1.645-1.962 2.022-4.565 1.274-6.732A6.332 6.332 0 0024 7.078zM18.423 18.42a6.434 6.434 0 00-1.462 3.424h-1.445v-1.56c-.005 0-1.357.154-1.407.154H8.484v1.406h-1.47a3.57 3.57 0 00-1.573-2.33c-1.924-1.245-2.294-3.09-2.401-3.295H1.406v-2.813H3.04l.166-.467c.232-.652.602-1.168.72-1.37l-.794-2.382h.202c1.277 0 2.064.704 2.25.798.228-.09 1.24-.797 2.9-.797h3.222a6.339 6.339 0 007.769 3.956c.558 1.719.227 3.75-1.052 5.276zM17.672 12a4.927 4.927 0 01-4.922-4.922 4.927 4.927 0 014.922-4.922 4.927 4.927 0 014.922 4.922A4.927 4.927 0 0117.672 12z" fill="#000"/><path d="M5.672 12h1.406v1.406H5.672V12z" fill="#000"/></svg>