<svg width="24" height="24" fill="none" xmlns="http://www.w3.org/2000/svg"><path d="M2 17.285h5v-3.34h5v-2.988h4l1.5-2.988h4V22.91H2v-5.625z" fill="#0774DB"/><path fill-rule="evenodd" clip-rule="evenodd" d="M16 8.458C16 7.653 16.782 7 17.75 7h3c.966 0 1.75.653 1.75 1.458V23.25H16V8.458zm1.75-.208c-.139 0-.25.093-.25.208V22H21V8.458c0-.115-.113-.208-.25-.208h-3z" fill="#143656"/><path fill-rule="evenodd" clip-rule="evenodd" d="M11 11.459c0-.806.784-1.459 1.75-1.459h3c.966 0 1.75.653 1.75 1.459v11.79H11V11.46zm1.75-.209c-.138 0-.25.093-.25.209v10.54H16V11.46c0-.116-.112-.209-.25-.209h-3z" fill="#143656"/><path fill-rule="evenodd" clip-rule="evenodd" d="M6 14.459C6 13.653 6.784 13 7.75 13h3c.966 0 1.75.653 1.75 1.459v8.791H6v-8.791zm1.75-.209c-.138 0-.25.094-.25.209V22H11v-7.541c0-.115-.112-.209-.25-.209h-3z" fill="#143656"/><path fill-rule="evenodd" clip-rule="evenodd" d="M1 17.458C1 16.653 1.784 16 2.75 16h3c.966 0 1.75.652 1.75 1.458v5.791H1v-5.791zm1.75-.208c-.138 0-.25.093-.25.208v4.541H6v-4.541c0-.115-.112-.208-.25-.208h-3z" fill="#143656"/><path d="M6.11 6.672a.704.704 0 010 1.406.707.707 0 01-.61-.352.703.703 0 10-1.217.704c.254.44.657.767 1.123.932v.77a.703.703 0 101.407 0v-.768a2.113 2.113 0 001.406-1.989c0-1.163-.947-2.11-2.11-2.11a.704.704 0 010-1.406c.25 0 .484.135.61.352a.703.703 0 101.217-.704 2.116 2.116 0 00-1.123-.932v-.872a.703.703 0 10-1.407 0v.871A2.113 2.113 0 004 4.563c0 1.163.946 2.109 2.11 2.109z" fill="#143656"/></svg>