<svg width="24" height="24" fill="none" xmlns="http://www.w3.org/2000/svg"><path d="M7.734 15.563c-.374 0-.703-.351-.703-.75 0-.295.186-.56.463-.662.36-.131.781.047 1.153.49a.703.703 0 101.077-.904c-.38-.453-.823-.764-1.287-.92V12a.703.703 0 00-1.406 0v.824l-.019.006a2.116 2.116 0 00-1.387 1.982c0 .56.215 1.095.607 1.504.402.421.936.653 1.502.653a.704.704 0 01.274 1.35c-.315.134-.691.02-1.034-.311a.703.703 0 00-.978 1.01c.317.307.67.525 1.035.647v.82a.703.703 0 001.407 0v-.824a2.106 2.106 0 001.406-1.99 2.112 2.112 0 00-2.11-2.108z" fill="#000"/><path d="M22.592 20.479c0 .86-2.21 2.11-5.672 2.11-1.473 0-2.864-.237-3.92-.65a7.788 7.788 0 001.742-2.326c.699.108 1.429.163 2.178.163 1.849 0 4.142-.36 5.672-1.36v2.063zm0-4.219c0 .86-2.21 2.11-5.672 2.11a13.1 13.1 0 01-1.672-.106 7.671 7.671 0 00.222-2.825c.474.047.958.071 1.45.071 1.85 0 4.142-.36 5.672-1.36v2.11z" fill="#0774DB"/><path d="M21.703.883C20.408.313 18.71 0 16.922 0 13.262 0 9.89 1.344 9.89 3.516V8.79a7.703 7.703 0 00-2.157-.307 7.652 7.652 0 00-5.469 2.294A7.753 7.753 0 000 16.266C0 20.53 3.47 24 7.734 24a7.733 7.733 0 003.988-1.099c1.307.702 3.17 1.099 5.2 1.099 1.788 0 3.486-.314 4.781-.883C23.184 22.465 24 21.53 24 20.484V3.516c0-1.046-.816-1.981-2.297-2.633zM7.734 22.593a6.335 6.335 0 01-6.328-6.327c0-3.516 2.84-6.375 6.328-6.375a6.382 6.382 0 016.375 6.375c0 3.489-2.86 6.328-6.375 6.328zm14.86-2.109c0 .86-2.21 2.11-5.672 2.11-1.473 0-2.865-.236-3.92-.65a7.787 7.787 0 001.742-2.326c.699.108 1.428.163 2.178.163 1.849 0 4.142-.36 5.672-1.36v2.063zm0-4.218c0 .86-2.21 2.109-5.672 2.109-.574 0-1.133-.036-1.672-.105a7.67 7.67 0 00.222-2.825c.473.046.958.07 1.45.07 1.849 0 4.142-.359 5.672-1.36v2.11zm0-4.266c0 .86-2.21 2.11-5.672 2.11-.599 0-1.184-.04-1.747-.116a7.794 7.794 0 00-1.918-3.185c1.087.317 2.35.488 3.665.488 1.849 0 4.142-.36 5.672-1.36V12zm0-4.219c0 .86-2.21 2.11-5.672 2.11-1.594 0-3.082-.271-4.19-.764-.885-.393-1.435-.909-1.435-1.346v-2.1c1.522.998 3.795 1.35 5.625 1.35 1.849 0 4.142-.36 5.672-1.36v2.11zm-5.672-2.156c-3.435 0-5.625-1.23-5.625-2.11 0-.88 2.196-2.109 5.625-2.109 3.462 0 5.672 1.25 5.672 2.11 0 .86-2.21 2.109-5.672 2.109z" fill="#000"/></svg>